<svg xmlns="http://www.w3.org/2000/svg" width="215" height="30" viewBox="0 0 215 30">
  <path fill="#FFF" fill-rule="evenodd" d="M14.1214893 22.2328685C11.0338468 22.2328685 9.31298776 19.70609 9.31298776 13.9455698 9.31298776 8.74154338 10.9831099 6.16411313 14.0198802 6.16411313 16.2974918 6.16411313 18.069223 7.47781645 18.4741708 11.0153334L27.2804664 11.0153334C27.0278645 4.95184836 22.1684909 0 14.2222865 0 6.27621745 0 0 5.20402644 0 14.5013882 0 23.3950218 5.87113435 28.3968465 13.6147971 28.3968465 20.9543239 28.3968465 26.3696383 24.7588366 27.3820755 17.7860517L18.4232987 17.7860517C17.9174183 20.7169635 16.1965593 22.2328685 14.1214893 22.2328685M43.1010042 22.2328685C39.8217401 22.2328685 37.8239394 19.5546751 37.8239394 14.1984233 37.8239394 8.79151976 39.8217401 6.16411313 43.1010042 6.16411313 46.3802683 6.16411313 48.3788908 8.79151976 48.3788908 14.1984233 48.3788908 19.5546751 46.3802683 22.2328685 43.1010042 22.2328685zM43.1010042 0C34.1347331 0 28.3962264 5.50766669 28.3962264 14.1984233 28.3962264 22.8393385 34.1347331 28.3968465 43.1010042 28.3968465 52.0680971 28.3968465 57.8066038 22.8393385 57.8066038 14.1984233 57.8066038 5.50766669 52.0680971 0 43.1010042 0L43.1010042 0zM143.739376 0C141.235401 0 139.55061.562222372 137.86582 1.5839232L135.004544 5.31535824C133.830515 2.29998819 130.918995 0 126.271213 0 123.76833 0 122.08313.562222372 120.397111 1.5839232L118.201286 5.1108268 118.201286.715381857 109.007846.715381857 109.007846 16.6516194 109.023684 20.4930396C109.023684 20.4930396 109.334974 22.8937223 107.100647 22.9247368 104.826863 22.9561611 104.993567 20.4982315 104.993567 20.4982315L104.97773 16.6516194 104.97773 12.0621633C104.97773 9.86396267 104.926531 8.28003947 104.722144 6.89996458 104.109803 3.16852953 101.045369 0 95.5800401 0 93.0772936 0 91.3919571.562222372 89.7066207 1.5839232L86.8458904 5.31535824C85.6717253 2.29998819 82.7603421 0 78.1124233 0 75.6096768 0 73.9243403.562222372 72.2383212 1.5839232L70.042496 5.1108268 70.042496.715381857 60.8490566.715381857 60.8490566 28.0087846 70.042496 28.0087846 70.042496 13.5953977C70.042496 8.94418599 71.2173437 6.23513491 74.1792434 6.23513491 76.5801379 6.23513491 77.805502 7.76850592 78.1124233 10.3754962 78.2654743 11.7550246 78.3166734 13.2377068 78.3166734 14.1062481L78.3166734 28.0087846 87.5101128 28.0087846 87.5101128 13.5953977C87.5101128 8.94418599 88.6849605 6.23513491 91.6468602 6.23513491 94.0477547 6.23513491 95.2738014 7.76850592 95.5800401 10.3754962 95.7330911 11.7550246 95.7844267 13.2377068 95.7844267 14.1062481L95.7844267 22.147326C95.7844267 22.147326 95.8799983 29.3588014 106.904726 29.4107199 118.618387 29.4659174 118.176164 21.8799459 118.176164 21.8799459L118.201286 16.6516194 118.201286 13.5953977C118.201286 8.94418599 119.376134 6.23513491 122.338033 6.23513491 124.738928 6.23513491 125.964155 7.76850592 126.271213 10.3754962 126.424264 11.7550246 126.475463 13.2377068 126.475463 14.1062481L126.475463 28.0087846 135.668903 28.0087846 135.668903 13.5953977C135.668903 8.94418599 136.843204 6.23513491 139.805923 6.23513491 142.206135 6.23513491 143.432182 7.76850592 143.739376 10.3754962 143.892291 11.7550246 143.942807 13.2377068 143.942807 14.1062481L143.942807 28.0087846 153.136792 28.0087846 153.136792 12.0621633C153.136792 9.86396267 153.084911 8.28003947 152.88148 6.89996458 152.268456 3.16852953 149.204705 0 143.739376 0M169.869598 22.2328685C166.590669 22.2328685 164.593727 19.5546751 164.593727 14.1984233 164.593727 8.79151976 166.590669 6.16411313 169.869598 6.16411313 173.149897 6.16411313 175.148208 8.79151976 175.148208 14.1984233 175.148208 19.5546751 173.149897 22.2328685 169.869598 22.2328685zM169.869598 0C160.903905 0 155.165094 5.50766669 155.165094 14.1984233 155.165094 22.8393385 160.903905 28.3968465 169.869598 28.3968465 178.836661 28.3968465 184.575472 22.8393385 184.575472 14.1984233 184.575472 5.50766669 178.836661 0 169.869598 0L169.869598 0zM214.747463 7.2451529C214.039818 2.5982691 210.756832 0 205.198308 0 202.722902 0 200.803887.549654398 199.13606 1.54851602L196.711971 4.84684313 196.711971.69939014 187.617925.69939014 187.617925 27.3826735 196.711971 27.3826735 196.711971 14.7904452C196.711971 8.74424678 198.682303 6.0957541 201.460215 6.0957541 204.189509 6.0957541 205.603448 7.59484798 205.804668 10.1435614 205.905953 11.4922516 205.905953 12.9417898 205.905953 13.7909157L205.905953 27.3826735 215 27.3826735 215 12.2918218C215 10.1435614 214.950033 8.59451104 214.747463 7.2451529"/>
</svg>
